# xmcd CD database file
#
# Track frame offsets:
#	183
#	49083
#	80358
#	118008
#	138033
#	183258
#	230958
#	264933
#	298908
#
# Disc length: 4453 seconds
#
# Revision: 2
# Processed by: cddbd v1.5.1PL2 Copyright (c) Steve Scherf et al.
# Submitted via: CDex 1.51
#
DISCID=7d116309
DTITLE=Bartok Bela - Concerto for Orchestra - Music for Strings, Percussion and Celesta
DYEAR=1990
DGENRE=Classical
TTITLE0=Concerto for Orchestra - Introduzione: Andante non troppo - Allegro Vivace
TTITLE1=Concerto for Orchestra - Giuoco delle coppie: Allegretto scherzando
TTITLE2=Concerto for Orchestra - Elegia: Andante non troppo
TTITLE3=Concerto for Orchestra - Intermezzo interrotto: Allegretto
TTITLE4=Concerto for Orchestra - Finale: Presto
TTITLE5=Music for Strings, Percussion and Celesta - Andante tranquillo
TTITLE6=Music for Strings, Percussion and Celesta - Allegro
TTITLE7=Music for Strings, Percussion and Celesta - Adagio
TTITLE8=Music for Strings, Percussion and Celesta - Allegro molto
EXTD=YEAR: 1990
EXTT0=
EXTT1=
EXTT2=
EXTT3=
EXTT4=
EXTT5=
EXTT6=
EXTT7=
EXTT8=
PLAYORDER=
